<mxfile host="app.diagrams.net" modified="2023-05-13T20:54:27.906Z" agent="Mozilla/5.0 (Windows NT 10.0; Win64; x64) AppleWebKit/537.36 (KHTML, like Gecko) Chrome/113.0.0.0 Safari/537.36" version="21.3.0" etag="1g7R4r7_71w7jpKXzjzV" type="github">
  <diagram name="PÃ¡gina-1" id="O_1GZHVWXGRvhXVZy1yO">
    <mxGraphModel>
      <root>
        <mxCell id="0" />
        <mxCell id="1" parent="0" />
      </root>
    </mxGraphModel>
  </diagram>
</mxfile>
